<?xml version="1.0" encoding="UTF-8" standalone="no"?>
<!DOCTYPE svg PUBLIC "-//W3C//DTD SVG 1.1//EN" "http://www.w3.org/Graphics/SVG/1.1/DTD/svg11.dtd">
<svg width="100%" height="100%" viewBox="0 0 108 123" version="1.1" xmlns="http://www.w3.org/2000/svg" xmlns:xlink="http://www.w3.org/1999/xlink" xml:space="preserve" xmlns:serif="http://www.serif.com/" style="fill-rule:evenodd;clip-rule:evenodd;stroke-linecap:round;stroke-linejoin:round;stroke-miterlimit:1.5;">
    <g transform="matrix(1,0,0,1,-1014.27,-108.223)">
        <g transform="matrix(0.901962,0,0,1.05984,867.369,-746.46)">
            <g transform="matrix(1.06109,0,0,1.04299,-16.9882,-39.5134)">
                <path d="M278.104,822.85C278.104,818.014 273.569,814.088 267.983,814.088L183.106,814.088C177.52,814.088 172.985,818.014 172.985,822.85L172.985,910.444C172.985,915.28 177.52,919.207 183.106,919.207L267.983,919.207C273.569,919.207 278.104,915.28 278.104,910.444L278.104,822.85Z" style="fill:none;stroke:rgb(57,73,156);stroke-width:6.45px;"/>
            </g>
            <g transform="matrix(1,0,0,-0.0255581,2.5571,844.658)">
                <path d="M263.596,827.287C263.596,827.09 263.592,826.93 263.586,826.93L177.276,826.93C177.27,826.93 177.266,827.09 177.266,827.287L177.266,828.001C177.266,828.197 177.27,828.357 177.276,828.357L263.586,828.357C263.592,828.357 263.596,828.197 263.596,828.001L263.596,827.287Z" style="fill:white;stroke:rgb(57,73,156);stroke-width:10.45px;"/>
            </g>
            <g transform="matrix(1,0,0,-0.0255581,2.5571,856.33)">
                <path d="M263.596,827.287C263.596,827.09 263.592,826.93 263.586,826.93L177.276,826.93C177.27,826.93 177.266,827.09 177.266,827.287L177.266,828.001C177.266,828.197 177.27,828.357 177.276,828.357L263.586,828.357C263.592,828.357 263.596,828.197 263.596,828.001L263.596,827.287Z" style="fill:white;stroke:rgb(57,73,156);stroke-width:10.45px;"/>
            </g>
            <g transform="matrix(1,0,0,-0.0255581,2.5571,868.002)">
                <path d="M263.596,827.287C263.596,827.09 263.592,826.93 263.586,826.93L177.276,826.93C177.27,826.93 177.266,827.09 177.266,827.287L177.266,828.001C177.266,828.197 177.27,828.357 177.276,828.357L263.586,828.357C263.592,828.357 263.596,828.197 263.596,828.001L263.596,827.287Z" style="fill:white;stroke:rgb(57,73,156);stroke-width:10.45px;"/>
            </g>
            <g transform="matrix(1,0,0,-0.0255581,2.5571,879.674)">
                <path d="M263.596,827.287C263.596,827.09 263.592,826.93 263.586,826.93L177.276,826.93C177.27,826.93 177.266,827.09 177.266,827.287L177.266,828.001C177.266,828.197 177.27,828.357 177.276,828.357L263.586,828.357C263.592,828.357 263.596,828.197 263.596,828.001L263.596,827.287Z" style="fill:white;stroke:rgb(57,73,156);stroke-width:10.45px;"/>
            </g>
            <g transform="matrix(1,0,0,-0.0255581,2.5571,891.345)">
                <path d="M263.596,827.287C263.596,827.09 263.592,826.93 263.586,826.93L177.276,826.93C177.27,826.93 177.266,827.09 177.266,827.287L177.266,828.001C177.266,828.197 177.27,828.357 177.276,828.357L263.586,828.357C263.592,828.357 263.596,828.197 263.596,828.001L263.596,827.287Z" style="fill:white;stroke:rgb(57,73,156);stroke-width:10.45px;"/>
            </g>
            <g transform="matrix(1,0,0,-0.0255581,2.5571,903.017)">
                <path d="M263.596,827.287C263.596,827.09 263.592,826.93 263.586,826.93L177.276,826.93C177.27,826.93 177.266,827.09 177.266,827.287L177.266,828.001C177.266,828.197 177.27,828.357 177.276,828.357L263.586,828.357C263.592,828.357 263.596,828.197 263.596,828.001L263.596,827.287Z" style="fill:white;stroke:rgb(57,73,156);stroke-width:10.45px;"/>
            </g>
            <g transform="matrix(1,0,0,-0.0255581,2.5571,914.689)">
                <path d="M263.596,827.287C263.596,827.09 263.592,826.93 263.586,826.93L177.276,826.93C177.27,826.93 177.266,827.09 177.266,827.287L177.266,828.001C177.266,828.197 177.27,828.357 177.276,828.357L263.586,828.357C263.592,828.357 263.596,828.197 263.596,828.001L263.596,827.287Z" style="fill:white;stroke:rgb(57,73,156);stroke-width:10.45px;"/>
            </g>
            <g transform="matrix(1,0,0,-0.0255581,2.5571,926.361)">
                <path d="M263.596,827.287C263.596,827.09 263.592,826.93 263.586,826.93L177.276,826.93C177.27,826.93 177.266,827.09 177.266,827.287L177.266,828.001C177.266,828.197 177.27,828.357 177.276,828.357L263.586,828.357C263.592,828.357 263.596,828.197 263.596,828.001L263.596,827.287Z" style="fill:white;stroke:rgb(57,73,156);stroke-width:10.45px;"/>
            </g>
        </g>
    </g>
</svg>
