<?xml version="1.0" encoding="UTF-8" standalone="no"?>
<!DOCTYPE svg PUBLIC "-//W3C//DTD SVG 1.1//EN" "http://www.w3.org/Graphics/SVG/1.1/DTD/svg11.dtd">
<svg width="100%" height="100%" viewBox="0 0 106 108" version="1.1" xmlns="http://www.w3.org/2000/svg" xmlns:xlink="http://www.w3.org/1999/xlink" xml:space="preserve" xmlns:serif="http://www.serif.com/" style="fill-rule:evenodd;clip-rule:evenodd;stroke-linecap:round;stroke-linejoin:round;stroke-miterlimit:1.5;">
    <g transform="matrix(1,0,0,1,-528.16,-109.657)">
        <g transform="matrix(1,0,0,1,-261.81,-18.5853)">
            <path d="M873.971,219.148C865.454,227.291 853.911,232.295 841.209,232.295C828.366,232.295 816.708,227.179 808.164,218.875L841.462,195.705L873.971,219.148ZM849.865,138.233C871.913,142.306 888.635,161.65 888.635,184.869C888.635,191.795 887.147,198.377 884.474,204.31L850.195,179.591L850.195,140.664C850.195,139.822 850.08,139.007 849.865,138.233ZM832.017,180.132L797.784,203.952C795.212,198.112 793.783,191.656 793.783,184.869C793.783,161.839 810.235,142.62 832.017,138.335L832.017,180.132Z" style="fill:none;stroke:rgb(57,73,156);stroke-width:6.67px;"/>
            <path d="M841.106,131.575C846.122,131.575 850.195,135.648 850.195,140.664L850.195,179.591L892.565,210.144L887.249,217.517C884.315,221.585 878.629,222.507 874.56,219.573L841.462,195.705L800.122,224.471L794.931,217.01C792.066,212.893 793.083,207.224 797.2,204.358L832.017,180.132L832.017,131.575L841.106,131.575Z" style="fill:none;stroke:rgb(57,73,156);stroke-width:6.67px;"/>
            <g transform="matrix(1.15701,0,0,1.15701,-130.363,-25.4442)">
                <circle cx="839.727" cy="181.773" r="7.924" style="fill:none;stroke:rgb(57,73,156);stroke-width:5.76px;"/>
            </g>
        </g>
    </g>
</svg>
