<?xml version="1.0" encoding="UTF-8" standalone="no"?>
<!DOCTYPE svg PUBLIC "-//W3C//DTD SVG 1.1//EN" "http://www.w3.org/Graphics/SVG/1.1/DTD/svg11.dtd">
<svg width="100%" height="100%" viewBox="0 0 103 145" version="1.1" xmlns="http://www.w3.org/2000/svg" xmlns:xlink="http://www.w3.org/1999/xlink" xml:space="preserve" xmlns:serif="http://www.serif.com/" style="fill-rule:evenodd;clip-rule:evenodd;stroke-linecap:round;stroke-linejoin:round;stroke-miterlimit:1.5;">
    <g transform="matrix(1,0,0,1,-1171.2,-98.8711)">
        <g transform="matrix(1,0,0,1,172.924,-18.5853)">
            <path d="M1097.54,245.773L1080.59,245.773L1080.59,148.735L1060.9,148.735L1060.9,132.655L1097.54,132.655L1097.54,245.773ZM1018.98,148.737L1018.98,245.773L1001.61,245.773L1001.61,132.655L1043.1,132.655L1018.98,148.737Z" style="fill:none;stroke:rgb(57,73,156);stroke-width:6.67px;"/>
            <g transform="matrix(5.05206e-17,-0.825064,1.1119,6.80842e-17,872.67,1084.22)">
                <path d="M1167.7,169.287L1000.89,169.287L1015.97,131.581L1133.83,131.581L1167.7,169.287Z" style="fill:none;stroke:rgb(57,73,156);stroke-width:6.81px;"/>
            </g>
            <ellipse cx="1050.69" cy="192.73" rx="0.286" ry="7.255" style="fill:none;stroke:rgb(57,73,156);stroke-width:6.67px;"/>
        </g>
    </g>
</svg>
