<?xml version="1.0" encoding="UTF-8" standalone="no"?>
<!DOCTYPE svg PUBLIC "-//W3C//DTD SVG 1.1//EN" "http://www.w3.org/Graphics/SVG/1.1/DTD/svg11.dtd">
<svg width="100%" height="100%" viewBox="0 0 106 141" version="1.1" xmlns="http://www.w3.org/2000/svg" xmlns:xlink="http://www.w3.org/1999/xlink" xml:space="preserve" xmlns:serif="http://www.serif.com/" style="fill-rule:evenodd;clip-rule:evenodd;stroke-linecap:round;stroke-linejoin:round;stroke-miterlimit:1.5;">
    <g transform="matrix(1,0,0,1,-178.001,-608.799)">
        <g transform="matrix(1,0,0,1,-9.63662,-23.4908)">
            <g transform="matrix(0.434909,0,0,0.436814,56.8792,600.206)">
                <path d="M440.456,154.504C457.907,160.552 470.44,177.171 470.44,196.694C470.44,219.84 452.825,238.904 430.275,241.2L425.704,241.431C401.013,241.431 380.968,221.385 380.968,196.694C380.968,178.351 392.031,162.572 407.926,155.655L407.926,169.923L440.538,169.923L440.456,154.504Z" style="fill:none;stroke:rgb(57,73,156);stroke-width:15.3px;"/>
            </g>
            <g transform="matrix(0.0599088,0,0,0.0599089,216.518,674.897)">
                <circle cx="425.704" cy="196.694" r="44.736" style="fill:rgb(57,73,156);stroke:rgb(57,73,156);stroke-width:29.69px;"/>
            </g>
            <path d="M241.917,719.026C241.882,719.026 241.847,719.026 241.812,719.025L241.708,719.025L241.603,719.023L241.499,719.022L241.394,719.02L241.29,719.018L241.186,719.015C241.097,719.013 241.009,719.01 240.92,719.007L240.874,719.006L240.848,719.005C240.684,718.999 240.52,718.992 240.356,718.983L240.252,718.978C240.451,718.989 240.649,718.998 240.848,719.005L240.874,719.006L240.92,719.007C241.009,719.01 241.097,719.013 241.186,719.015L241.29,719.018C241.325,719.019 241.36,719.019 241.394,719.02C241.429,719.021 241.464,719.021 241.499,719.022L241.603,719.023C241.638,719.024 241.673,719.024 241.708,719.025L241.812,719.025C241.882,719.026 241.952,719.026 242.021,719.026L241.917,719.026Z" style="fill:none;stroke:rgb(57,73,156);stroke-width:6.67px;"/>
            <path d="M242.407,719.024L242.44,719.023L242.455,719.023C242.519,719.022 242.584,719.021 242.649,719.02L242.544,719.022L242.455,719.023L242.44,719.023L242.407,719.024L242.335,719.025L242.231,719.025C242.29,719.025 242.348,719.024 242.407,719.024Z" style="fill:none;stroke:rgb(57,73,156);stroke-width:6.67px;"/>
            <path d="M242.857,719.015C242.95,719.013 243.042,719.01 243.135,719.007L243.169,719.006L243.194,719.005C243.359,718.999 243.523,718.992 243.687,718.983L243.791,718.978C243.928,718.97 244.066,718.962 244.203,718.952C244.341,718.943 244.478,718.933 244.615,718.922L244.717,718.914C244.786,718.908 244.854,718.902 244.922,718.896C244.991,718.889 245.059,718.883 245.127,718.877L245.025,718.886L244.922,718.896C244.854,718.902 244.786,718.908 244.717,718.914L244.615,718.922C244.512,718.93 244.409,718.938 244.306,718.945L244.203,718.952C244.066,718.962 243.928,718.97 243.791,718.978L243.687,718.983C243.523,718.992 243.359,718.999 243.194,719.005L243.169,719.006L243.135,719.007C243.007,719.011 242.88,719.015 242.753,719.018L242.857,719.015Z" style="fill:none;stroke:rgb(57,73,156);stroke-width:6.67px;"/>
            <path d="M240.027,718.965C239.964,718.961 239.9,718.957 239.836,718.952C239.563,718.934 239.29,718.912 239.018,718.886L238.916,718.877C239.222,718.906 239.528,718.931 239.836,718.952C239.9,718.957 239.964,718.961 240.027,718.965C240.068,718.967 240.109,718.97 240.149,718.972L240.046,718.966L240.027,718.965Z" style="fill:none;stroke:rgb(57,73,156);stroke-width:6.67px;"/>
            <path d="M238.712,718.856C238.311,718.815 237.912,718.766 237.516,718.71C237.374,718.69 237.233,718.669 237.092,718.647L236.991,718.631C236.924,718.62 236.857,718.609 236.791,718.598L236.691,718.582C236.557,718.559 236.424,718.536 236.291,718.512L236.192,718.494C236.026,718.463 235.86,718.431 235.695,718.398L235.596,718.378L235.497,718.357C235.563,718.371 235.629,718.384 235.695,718.398C235.86,718.431 236.026,718.463 236.192,718.494L236.291,718.512C236.424,718.536 236.557,718.559 236.691,718.582L236.791,718.598C236.857,718.609 236.924,718.62 236.991,718.631L237.092,718.647C237.233,718.669 237.374,718.69 237.516,718.71C237.946,718.771 238.379,718.823 238.814,718.866L238.712,718.856Z" style="fill:none;stroke:rgb(57,73,156);stroke-width:6.67px;"/>
            <path d="M245.433,718.845C245.807,718.806 246.179,718.759 246.549,718.707L246.649,718.692C246.75,718.677 246.851,718.662 246.951,718.647L246.851,718.662C246.784,718.672 246.717,718.682 246.649,718.692L246.549,718.707C246.145,718.764 245.739,718.814 245.331,718.856L245.433,718.845Z" style="fill:none;stroke:rgb(57,73,156);stroke-width:6.67px;"/>
            <path d="M247.061,718.629C247.13,718.619 247.198,718.607 247.266,718.596C247.328,718.586 247.39,718.575 247.452,718.565L247.352,718.582L247.266,718.596C247.198,718.607 247.13,718.619 247.061,718.629Z" style="fill:none;stroke:rgb(57,73,156);stroke-width:6.67px;"/>
            <path d="M247.974,718.471C248.099,718.447 248.224,718.423 248.348,718.398L248.447,718.378C248.48,718.371 248.513,718.364 248.546,718.357L248.447,718.378L248.348,718.398C248.224,718.423 248.099,718.447 247.974,718.471C247.933,718.478 247.892,718.486 247.851,718.494L247.951,718.475L247.974,718.471Z" style="fill:none;stroke:rgb(57,73,156);stroke-width:6.67px;"/>
            <path d="M235.306,718.317C235.096,718.272 234.888,718.225 234.681,718.176L234.613,718.16L234.547,718.144L234.515,718.136C234.443,718.119 234.372,718.102 234.3,718.084C234.047,718.021 233.795,717.955 233.544,717.886C233.479,717.868 233.415,717.85 233.351,717.832L233.255,717.805L233.187,717.785L233.159,717.777L233.152,717.775L233.063,717.749L233.005,717.732L232.967,717.721L232.895,717.7C232.848,717.686 232.801,717.672 232.754,717.657C232.315,717.524 231.881,717.382 231.45,717.231L231.356,717.198L231.301,717.178C231.07,717.096 230.84,717.011 230.611,716.923C230.55,716.9 230.488,716.876 230.426,716.852L230.334,716.816C230.273,716.791 230.211,716.767 230.15,716.742L230.058,716.705C230.15,716.743 230.242,716.779 230.334,716.816L230.426,716.852C230.457,716.864 230.488,716.876 230.519,716.888L230.611,716.923C230.84,717.011 231.07,717.096 231.301,717.178L231.356,717.198L231.45,717.231C231.881,717.382 232.315,717.524 232.754,717.657C232.801,717.672 232.848,717.686 232.895,717.7L232.967,717.721L233.063,717.749L233.159,717.777L233.255,717.805L233.351,717.832C233.383,717.841 233.415,717.85 233.447,717.859L233.544,717.886C233.795,717.955 234.047,718.021 234.3,718.084C234.339,718.093 234.378,718.103 234.417,718.113L234.515,718.136L234.613,718.16L234.681,718.176C234.888,718.225 235.096,718.272 235.306,718.317Z" style="fill:none;stroke:rgb(57,73,156);stroke-width:6.67px;"/>
            <path d="M248.644,718.336C248.894,718.284 249.143,718.228 249.39,718.169C249.503,718.143 249.615,718.115 249.728,718.087C249.921,718.039 250.114,717.99 250.306,717.938L250.209,717.964C250.049,718.006 249.889,718.048 249.728,718.087C249.615,718.115 249.503,718.143 249.39,718.169C249.175,718.22 248.96,718.269 248.743,718.315L248.644,718.336Z" style="fill:none;stroke:rgb(57,73,156);stroke-width:6.67px;"/>
            <path d="M250.564,717.868C250.68,717.835 250.796,717.803 250.912,717.769L250.98,717.749L251.069,717.723L251.076,717.721C251.147,717.7 251.218,717.679 251.289,717.657C251.696,717.534 252.099,717.403 252.499,717.264L252.405,717.296C252.036,717.423 251.664,717.544 251.289,717.657C251.218,717.679 251.147,717.7 251.076,717.721L251.069,717.723L250.98,717.749L250.912,717.769C250.796,717.803 250.68,717.835 250.564,717.868Z" style="fill:none;stroke:rgb(57,73,156);stroke-width:6.67px;"/>
            <path d="M252.709,717.19C253.17,717.026 253.626,716.852 254.077,716.668C254.435,716.522 254.79,716.369 255.142,716.211C255.216,716.177 255.291,716.143 255.365,716.109C255.675,715.966 255.983,715.819 256.287,715.666L256.323,715.648L256.363,715.629C256.702,715.458 257.037,715.282 257.369,715.1L257.388,715.089C257.468,715.046 257.547,715.002 257.627,714.957C257.684,714.925 257.741,714.893 257.798,714.861C258.026,714.731 258.252,714.599 258.476,714.464L258.56,714.414C259.568,713.804 260.54,713.14 261.473,712.427L261.551,712.367L261.625,712.31C261.807,712.169 261.987,712.027 262.166,711.882C262.235,711.827 262.304,711.771 262.372,711.714C262.43,711.667 262.487,711.62 262.544,711.572L262.469,711.634C262.437,711.661 262.405,711.688 262.372,711.714C262.329,711.75 262.285,711.785 262.242,711.821L262.166,711.882C261.987,712.027 261.807,712.169 261.625,712.31L261.551,712.367L261.473,712.427C260.566,713.121 259.622,713.767 258.644,714.363L258.56,714.414L258.476,714.464C258.28,714.582 258.082,714.698 257.883,714.812L257.798,714.861C257.741,714.893 257.684,714.925 257.627,714.957C257.547,715.002 257.468,715.046 257.388,715.089L257.369,715.1C257.037,715.282 256.702,715.458 256.363,715.629L256.323,715.648L256.287,715.666C255.983,715.819 255.675,715.966 255.365,716.109C255.291,716.143 255.216,716.177 255.142,716.211C254.82,716.356 254.495,716.496 254.168,716.631L254.077,716.668C253.626,716.852 253.17,717.026 252.709,717.19L252.687,717.198L252.593,717.231C252.632,717.217 252.671,717.204 252.709,717.19Z" style="fill:none;stroke:rgb(57,73,156);stroke-width:6.67px;"/>
            <path d="M229.875,716.631C229.57,716.505 229.267,716.375 228.967,716.24L228.877,716.2C229.237,716.362 229.6,716.519 229.966,716.668L229.875,716.631Z" style="fill:none;stroke:rgb(57,73,156);stroke-width:6.67px;"/>
            <path d="M228.687,716.113C228.58,716.064 228.473,716.014 228.366,715.963L228.34,715.951L228.251,715.908C228.289,715.927 228.327,715.945 228.366,715.963C228.473,716.014 228.58,716.064 228.687,716.113L228.697,716.118L228.687,716.113Z" style="fill:none;stroke:rgb(57,73,156);stroke-width:6.67px;"/>
            <path d="M228.162,715.866C228.026,715.8 227.89,715.734 227.756,715.666L227.72,715.648L227.684,715.631C227.435,715.505 227.187,715.376 226.941,715.245L226.933,715.241L226.847,715.194L226.76,715.147L226.674,715.1L226.666,715.096C226.554,715.034 226.442,714.972 226.331,714.909L226.245,714.861L226.16,714.812C224.881,714.08 223.656,713.263 222.492,712.367L222.461,712.343C222.274,712.199 222.089,712.053 221.906,711.906L221.877,711.882L221.864,711.872C221.808,711.826 221.751,711.78 221.695,711.734C221.175,711.308 220.669,710.866 220.176,710.408C220.152,710.386 220.129,710.364 220.105,710.342L220.033,710.275C219.843,710.096 219.655,709.915 219.469,709.731C219.335,709.599 219.202,709.466 219.07,709.331C219.019,709.279 218.969,709.227 218.918,709.175C218.873,709.128 218.827,709.081 218.782,709.034L218.77,709.02C218.665,708.91 218.56,708.8 218.457,708.688C218.429,708.659 218.402,708.629 218.374,708.599C217.991,708.183 217.619,707.758 217.258,707.323L217.219,707.276L217.163,707.209C217.12,707.156 217.076,707.103 217.033,707.049C217.005,707.015 216.978,706.981 216.95,706.947L216.909,706.895L216.868,706.845C216.657,706.581 216.449,706.313 216.246,706.042L216.22,706.007C216.158,705.924 216.096,705.841 216.035,705.757C215.898,705.571 215.763,705.382 215.63,705.193L215.611,705.166L215.582,705.124C215.554,705.084 215.526,705.044 215.498,705.004L215.443,704.923C215.489,704.99 215.535,705.057 215.582,705.124L215.611,705.166L215.63,705.193C215.763,705.382 215.898,705.571 216.035,705.757C216.096,705.841 216.158,705.924 216.22,706.007L216.246,706.042C216.449,706.313 216.657,706.581 216.868,706.845L216.909,706.895L216.95,706.947C216.978,706.981 217.005,707.015 217.033,707.049C217.076,707.103 217.12,707.156 217.163,707.209L217.219,707.276L217.258,707.323C217.619,707.758 217.992,708.183 218.374,708.599C218.402,708.629 218.429,708.659 218.457,708.688C218.56,708.8 218.665,708.91 218.77,709.02L218.782,709.034C218.827,709.081 218.873,709.128 218.918,709.175C218.969,709.227 219.019,709.279 219.07,709.331C219.179,709.442 219.289,709.553 219.4,709.663L219.469,709.731C219.655,709.915 219.843,710.096 220.033,710.275L220.105,710.342C220.129,710.364 220.152,710.386 220.176,710.408C220.669,710.866 221.175,711.308 221.695,711.734C221.751,711.78 221.807,711.826 221.864,711.872L221.906,711.906C222.089,712.053 222.274,712.199 222.461,712.343L222.492,712.367C223.656,713.263 224.881,714.08 226.16,714.812L226.245,714.861C226.274,714.877 226.302,714.893 226.331,714.909C226.442,714.972 226.554,715.034 226.666,715.096C226.697,715.113 226.729,715.13 226.76,715.147C226.789,715.163 226.818,715.178 226.847,715.194L226.933,715.241L226.941,715.245C227.187,715.376 227.435,715.505 227.684,715.631L227.72,715.648L227.756,715.666C227.861,715.719 227.967,715.771 228.073,715.823L228.162,715.866Z" style="fill:none;stroke:rgb(57,73,156);stroke-width:6.67px;"/>
            <path d="M262.694,711.446C263.018,711.173 263.337,710.893 263.651,710.607L263.578,710.673C263.264,710.958 262.944,711.237 262.619,711.509L262.694,711.446Z" style="fill:none;stroke:rgb(57,73,156);stroke-width:6.67px;"/>
            <path d="M263.936,710.344C264.127,710.165 264.317,709.984 264.504,709.8L264.434,709.868C264.27,710.029 264.104,710.187 263.936,710.344L263.867,710.408L263.814,710.457L263.867,710.408L263.936,710.344Z" style="fill:none;stroke:rgb(57,73,156);stroke-width:6.67px;"/>
            <path d="M264.616,709.69C264.741,709.566 264.865,709.441 264.988,709.315C265.031,709.272 265.073,709.229 265.115,709.185C265.259,709.037 265.401,708.887 265.542,708.736C265.582,708.692 265.623,708.649 265.663,708.605C265.963,708.28 266.256,707.949 266.543,707.612L266.572,707.577L266.615,707.526C266.672,707.459 266.729,707.391 266.785,707.323C266.896,707.189 267.006,707.055 267.115,706.919L267.134,706.895C267.429,706.528 267.716,706.155 267.995,705.775C268.123,705.6 268.25,705.424 268.375,705.246L268.319,705.327C268.212,705.477 268.104,705.627 267.995,705.775C267.716,706.155 267.429,706.528 267.134,706.895L267.115,706.919C267.006,707.055 266.896,707.189 266.785,707.323C266.729,707.391 266.672,707.459 266.615,707.526L266.572,707.577L266.543,707.612C266.277,707.924 266.006,708.231 265.729,708.533L265.663,708.605C265.623,708.649 265.582,708.692 265.542,708.736C265.401,708.887 265.259,709.037 265.115,709.185C265.073,709.229 265.031,709.272 264.988,709.315C264.865,709.441 264.741,709.566 264.616,709.69Z" style="fill:none;stroke:rgb(57,73,156);stroke-width:6.67px;"/>
            <path d="M268.488,705.085C268.526,705.031 268.563,704.977 268.6,704.923L268.544,705.004C268.507,705.058 268.47,705.112 268.432,705.166L268.488,705.085Z" style="fill:none;stroke:rgb(57,73,156);stroke-width:6.67px;"/>
            <path d="M215.386,704.84C215.334,704.765 215.283,704.689 215.232,704.613L215.221,704.597L215.167,704.515C215.189,704.548 215.21,704.581 215.232,704.613C215.283,704.689 215.334,704.765 215.386,704.84Z" style="fill:none;stroke:rgb(57,73,156);stroke-width:6.67px;"/>
            <path d="M268.669,704.823C268.706,704.768 268.743,704.713 268.78,704.658C268.812,704.611 268.844,704.563 268.876,704.515L268.822,704.597L268.78,704.658C268.743,704.713 268.706,704.768 268.669,704.823Z" style="fill:none;stroke:rgb(57,73,156);stroke-width:6.67px;"/>
            <path d="M268.955,704.397C268.983,704.354 269.011,704.311 269.039,704.268L268.985,704.351L268.955,704.397Z" style="fill:none;stroke:rgb(57,73,156);stroke-width:6.67px;"/>
            <path d="M214.931,704.156L214.897,704.103L214.854,704.036C214.79,703.936 214.727,703.837 214.664,703.736C214.601,703.636 214.539,703.535 214.477,703.434L214.426,703.349C214.504,703.479 214.584,703.608 214.664,703.736C214.727,703.837 214.79,703.936 214.854,704.036L214.897,704.103L214.95,704.185L214.974,704.221L214.95,704.185L214.931,704.156Z" style="fill:none;stroke:rgb(57,73,156);stroke-width:6.67px;"/>
            <path d="M269.146,704.103L269.099,704.176L269.146,704.103Z" style="fill:none;stroke:rgb(57,73,156);stroke-width:6.67px;"/>
            <path d="M214.273,703.095C214.246,703.049 214.219,703.003 214.192,702.957C214.056,702.727 213.924,702.495 213.794,702.261C213.736,702.156 213.678,702.051 213.621,701.945C213.321,701.392 213.036,700.828 212.768,700.256L212.743,700.204L212.735,700.187C212.303,699.26 211.912,698.31 211.565,697.338L211.565,697.338L211.563,697.333C211.282,696.547 211.03,695.746 210.807,694.933L210.781,694.835C210.758,694.751 210.736,694.667 210.714,694.583C210.555,693.976 210.413,693.362 210.288,692.741C210.273,692.667 210.258,692.592 210.244,692.517L210.231,692.451L210.217,692.378C210.063,691.563 209.937,690.736 209.843,689.901C209.937,690.736 210.062,691.563 210.217,692.378L210.231,692.451L210.244,692.517C210.258,692.592 210.273,692.667 210.288,692.741C210.413,693.362 210.555,693.976 210.714,694.583C210.736,694.667 210.758,694.751 210.781,694.835L210.807,694.933C211.03,695.746 211.282,696.547 211.563,697.333L211.565,697.338C211.912,698.31 212.303,699.26 212.735,700.187L212.743,700.204L212.768,700.256C213.036,700.828 213.321,701.392 213.621,701.945C213.678,702.051 213.736,702.156 213.794,702.261C213.924,702.495 214.056,702.727 214.192,702.957C214.235,703.032 214.28,703.106 214.324,703.18L214.273,703.095Z" style="fill:none;stroke:rgb(57,73,156);stroke-width:6.67px;"/>
            <path d="M209.821,689.694C209.802,689.522 209.785,689.349 209.77,689.176C209.788,689.384 209.809,689.591 209.832,689.798L209.821,689.694Z" style="fill:none;stroke:rgb(57,73,156);stroke-width:6.67px;"/>
            <path d="M209.747,688.917L209.743,688.864L209.741,688.84C209.719,688.57 209.701,688.299 209.685,688.027L209.68,687.922C209.696,688.229 209.716,688.535 209.741,688.84L209.743,688.864L209.747,688.917C209.751,688.969 209.756,689.02 209.76,689.072L209.751,688.968L209.747,688.917Z" style="fill:none;stroke:rgb(57,73,156);stroke-width:6.67px;"/>
            <path d="M274.309,688.759C274.313,688.696 274.318,688.632 274.323,688.569L274.324,688.551L274.328,688.49C274.351,688.162 274.37,687.832 274.383,687.502L274.379,687.607C274.366,687.902 274.349,688.197 274.328,688.49L274.324,688.551L274.323,688.569C274.316,688.667 274.308,688.765 274.3,688.864L274.309,688.759Z" style="fill:none;stroke:rgb(57,73,156);stroke-width:6.67px;"/>
            <path d="M209.671,687.752C209.662,687.563 209.654,687.374 209.648,687.185L209.645,687.08C209.652,687.304 209.66,687.528 209.671,687.752Z" style="fill:none;stroke:rgb(57,73,156);stroke-width:6.67px;"/>
            <path d="M274.395,687.185C274.405,686.833 274.411,686.48 274.411,686.125C274.411,685.743 274.405,685.362 274.392,684.982C274.389,684.913 274.387,684.844 274.384,684.774C274.273,681.996 273.823,679.307 273.074,676.747L273.065,676.717L273.059,676.696C272.979,676.424 272.896,676.154 272.809,675.886L272.804,675.87L272.796,675.846C272.472,674.845 272.102,673.865 271.689,672.909C271.583,672.665 271.474,672.422 271.363,672.181C271.205,671.839 271.042,671.501 270.873,671.165L270.834,671.088C270.806,671.033 270.779,670.979 270.751,670.926C270.718,670.861 270.685,670.797 270.651,670.733L270.634,670.701L270.61,670.655C270.402,670.259 270.186,669.868 269.963,669.482C270.186,669.868 270.402,670.259 270.61,670.655L270.634,670.701L270.651,670.733C270.685,670.797 270.718,670.861 270.751,670.926C270.792,671.005 270.833,671.085 270.873,671.165C271.042,671.501 271.205,671.839 271.363,672.181C271.474,672.422 271.583,672.665 271.689,672.909C272.102,673.865 272.472,674.845 272.796,675.846L272.809,675.886C272.896,676.154 272.979,676.424 273.059,676.696L273.074,676.747C273.823,679.307 274.274,681.996 274.384,684.774C274.387,684.844 274.389,684.913 274.392,684.982C274.405,685.362 274.411,685.743 274.411,686.125C274.411,686.515 274.404,686.904 274.391,687.291L274.395,687.185Z" style="fill:none;stroke:rgb(57,73,156);stroke-width:6.67px;"/>
            <path d="M209.642,686.934C209.64,686.862 209.638,686.791 209.637,686.72C209.636,686.628 209.634,686.536 209.633,686.444C209.634,686.536 209.636,686.628 209.637,686.72C209.638,686.791 209.64,686.862 209.642,686.934Z" style="fill:none;stroke:rgb(57,73,156);stroke-width:6.67px;"/>
            <path d="M209.632,686.232L209.633,686.338L209.632,686.232Z" style="fill:none;stroke:rgb(57,73,156);stroke-width:6.67px;"/>
            <path d="M209.633,685.854C209.634,685.764 209.635,685.673 209.636,685.583C209.634,685.704 209.633,685.824 209.632,685.944L209.633,685.854Z" style="fill:none;stroke:rgb(57,73,156);stroke-width:6.67px;"/>
            <path d="M209.64,685.377C209.644,685.206 209.649,685.035 209.655,684.864C209.649,685.035 209.644,685.206 209.64,685.377Z" style="fill:none;stroke:rgb(57,73,156);stroke-width:6.67px;"/>
            <path d="M209.671,684.506C209.675,684.417 209.679,684.327 209.684,684.238C209.678,684.357 209.672,684.476 209.666,684.595L209.671,684.506Z" style="fill:none;stroke:rgb(57,73,156);stroke-width:6.67px;"/>
            <path d="M209.695,684.06L209.69,684.149L209.695,684.06Z" style="fill:none;stroke:rgb(57,73,156);stroke-width:6.67px;"/>
            <path d="M209.712,683.793C209.714,683.763 209.716,683.733 209.718,683.704L209.712,683.793L209.706,683.882L209.704,683.92L209.706,683.882L209.712,683.793Z" style="fill:none;stroke:rgb(57,73,156);stroke-width:6.67px;"/>
            <path d="M209.732,683.526C209.736,683.47 209.74,683.415 209.745,683.359C209.748,683.326 209.75,683.293 209.753,683.26L209.746,683.349L209.745,683.359C209.738,683.444 209.731,683.529 209.725,683.615L209.732,683.526Z" style="fill:none;stroke:rgb(57,73,156);stroke-width:6.67px;"/>
            <path d="M209.761,683.169C209.769,683.082 209.777,682.994 209.785,682.907C209.777,682.994 209.769,683.082 209.761,683.169Z" style="fill:none;stroke:rgb(57,73,156);stroke-width:6.67px;"/>
            <path d="M209.812,682.642C209.833,682.437 209.856,682.232 209.881,682.028C209.853,682.261 209.826,682.495 209.803,682.73L209.812,682.642Z" style="fill:none;stroke:rgb(57,73,156);stroke-width:6.67px;"/>
            <path d="M209.914,681.765C209.907,681.824 209.899,681.882 209.892,681.94L209.903,681.853L209.914,681.765Z" style="fill:none;stroke:rgb(57,73,156);stroke-width:6.67px;"/>
            <path d="M209.95,681.504C209.97,681.355 209.992,681.205 210.015,681.057C210.027,680.978 210.039,680.899 210.052,680.821L210.053,680.809L210.058,680.778C210.075,680.673 210.093,680.568 210.111,680.464L210.125,680.377C210.14,680.291 210.156,680.205 210.171,680.119L210.187,680.033C210.195,679.99 210.203,679.947 210.211,679.904C210.414,678.832 210.667,677.779 210.969,676.748L210.993,676.666L211.003,676.632L211.018,676.583L211.025,676.559C211.048,676.482 211.071,676.406 211.094,676.33C211.186,676.031 211.282,675.734 211.382,675.439L211.355,675.52C211.265,675.789 211.178,676.059 211.094,676.33C211.071,676.406 211.048,676.482 211.025,676.559L211.018,676.583L211.003,676.632L210.993,676.666L210.969,676.748C210.667,677.779 210.414,678.832 210.211,679.904C210.203,679.947 210.195,679.99 210.187,680.033L210.171,680.119C210.156,680.205 210.14,680.291 210.125,680.377L210.111,680.464C210.093,680.568 210.075,680.673 210.058,680.778L210.053,680.809L210.052,680.821C210.039,680.899 210.027,680.978 210.015,681.057C209.992,681.205 209.97,681.354 209.95,681.504L209.938,681.591L209.927,681.67L209.938,681.591L209.95,681.504Z" style="fill:none;stroke:rgb(57,73,156);stroke-width:6.67px;"/>
            <path d="M211.437,675.277C211.538,674.984 211.643,674.693 211.752,674.404L211.756,674.393L211.786,674.314C211.774,674.344 211.763,674.374 211.752,674.404C211.633,674.72 211.519,675.038 211.409,675.358L211.437,675.277Z" style="fill:none;stroke:rgb(57,73,156);stroke-width:6.67px;"/>
            <path d="M211.877,674.075C211.91,673.992 211.942,673.909 211.975,673.827C212.007,673.746 212.04,673.665 212.072,673.585C212.107,673.501 212.141,673.416 212.177,673.332C212.194,673.291 212.211,673.249 212.229,673.208L212.262,673.13C212.277,673.093 212.292,673.057 212.308,673.021C212.417,672.767 212.529,672.515 212.644,672.264L212.674,672.199L212.709,672.122C212.687,672.17 212.665,672.217 212.644,672.264C212.529,672.515 212.417,672.767 212.308,673.021C212.293,673.057 212.277,673.093 212.262,673.13L212.229,673.208C212.211,673.249 212.194,673.291 212.177,673.332C212.141,673.416 212.107,673.501 212.072,673.585C212.04,673.665 212.007,673.746 211.975,673.827C211.932,673.936 211.889,674.045 211.847,674.155L211.877,674.075Z" style="fill:none;stroke:rgb(57,73,156);stroke-width:6.67px;"/>
            <path d="M212.753,672.03C213.037,671.422 213.34,670.824 213.66,670.237L213.619,670.311C213.314,670.874 213.025,671.447 212.753,672.03Z" style="fill:none;stroke:rgb(57,73,156);stroke-width:6.67px;"/>
            <path d="M213.731,670.107C214.127,669.388 214.549,668.686 214.995,668.002L215.041,667.931C214.578,668.638 214.141,669.363 213.731,670.107Z" style="fill:none;stroke:rgb(57,73,156);stroke-width:6.67px;"/>
            <path d="M269.876,669.332C269.738,669.096 269.597,668.862 269.453,668.63C269.3,668.384 269.145,668.141 268.986,667.899C268.929,667.812 268.871,667.725 268.813,667.638L268.776,667.583C268.745,667.536 268.714,667.49 268.682,667.444L268.673,667.43L268.65,667.397C268.576,667.289 268.502,667.182 268.427,667.075L268.477,667.145C268.535,667.229 268.593,667.313 268.65,667.397L268.682,667.444C268.713,667.49 268.745,667.536 268.776,667.583L268.813,667.638C268.871,667.725 268.929,667.812 268.986,667.899C269.145,668.141 269.3,668.384 269.453,668.63C269.612,668.887 269.767,669.146 269.92,669.407L269.876,669.332Z" style="fill:none;stroke:rgb(57,73,156);stroke-width:6.67px;"/>
            <path d="M215.092,667.854C215.306,667.53 215.525,667.21 215.75,666.894C215.912,666.667 216.076,666.442 216.244,666.219C216.307,666.136 216.37,666.052 216.433,665.969C216.488,665.898 216.543,665.827 216.598,665.756C216.667,665.668 216.736,665.58 216.806,665.492L216.831,665.461C216.993,665.258 217.157,665.056 217.324,664.857L217.334,664.846L217.387,664.782C217.405,664.761 217.423,664.739 217.441,664.718L217.495,664.655C217.441,664.718 217.387,664.782 217.334,664.846L217.324,664.857C217.157,665.056 216.993,665.258 216.831,665.461L216.806,665.492C216.736,665.58 216.667,665.668 216.598,665.756C216.543,665.827 216.488,665.898 216.433,665.969C216.37,666.052 216.307,666.136 216.244,666.219C216.076,666.442 215.912,666.667 215.75,666.894C215.525,667.21 215.306,667.53 215.092,667.854Z" style="fill:none;stroke:rgb(57,73,156);stroke-width:6.67px;"/>
            <path d="M268.3,666.894L268.278,666.863L268.3,666.894C268.326,666.931 268.352,666.967 268.378,667.004L268.328,666.933L268.3,666.894Z" style="fill:none;stroke:rgb(57,73,156);stroke-width:6.67px;"/>
            <path d="M268.177,666.723C268.046,666.54 267.912,666.359 267.777,666.179L267.768,666.167L267.733,666.12C267.679,666.049 267.625,665.978 267.571,665.908L267.559,665.892L267.549,665.879C267.511,665.829 267.473,665.78 267.434,665.731C267.352,665.625 267.268,665.519 267.184,665.414C267.149,665.37 267.114,665.327 267.079,665.283L267.133,665.35L267.184,665.414C267.268,665.519 267.352,665.625 267.434,665.731C267.473,665.78 267.511,665.829 267.549,665.879L267.571,665.908C267.625,665.978 267.679,666.049 267.733,666.12L267.768,666.167L267.777,666.179C267.93,666.382 268.08,666.586 268.228,666.793L268.177,666.723Z" style="fill:none;stroke:rgb(57,73,156);stroke-width:6.67px;"/>
            <path d="M266.971,665.149C266.543,664.624 266.099,664.113 265.64,663.616C265.589,663.561 265.538,663.506 265.486,663.451C265.412,663.372 265.338,663.294 265.263,663.216C265.204,663.153 265.144,663.091 265.084,663.03L265.025,662.968L264.99,662.932C264.776,662.715 264.56,662.5 264.341,662.288C264.087,662.042 263.829,661.801 263.568,661.564L263.54,661.539L263.509,661.51C263.455,661.462 263.402,661.415 263.349,661.367L263.413,661.424C263.445,661.453 263.477,661.482 263.509,661.51L263.54,661.539L263.568,661.564C263.829,661.801 264.087,662.042 264.341,662.288C264.56,662.5 264.776,662.715 264.99,662.932L265.025,662.968L265.084,663.03C265.124,663.071 265.164,663.112 265.204,663.153L265.263,663.216C265.338,663.294 265.412,663.372 265.486,663.451C265.538,663.506 265.589,663.561 265.64,663.616C266.118,664.134 266.58,664.668 267.025,665.216L266.971,665.149Z" style="fill:none;stroke:rgb(57,73,156);stroke-width:6.67px;"/>
            <path d="M217.58,664.555C217.66,664.461 217.741,664.368 217.822,664.276L217.877,664.213C217.963,664.116 218.049,664.02 218.136,663.923C218.161,663.896 218.186,663.868 218.211,663.841L218.267,663.779L218.297,663.746L218.323,663.718L218.354,663.684C218.786,663.215 219.232,662.759 219.691,662.316C219.72,662.287 219.75,662.259 219.779,662.23L219.84,662.173C219.989,662.03 220.139,661.89 220.291,661.75C220.347,661.699 220.403,661.648 220.459,661.597C220.497,661.562 220.535,661.528 220.573,661.494L220.635,661.439C220.576,661.491 220.518,661.544 220.459,661.597C220.403,661.648 220.347,661.699 220.291,661.75C220.139,661.89 219.989,662.03 219.84,662.173L219.779,662.23C219.75,662.259 219.72,662.287 219.691,662.316C219.232,662.759 218.786,663.215 218.354,663.684L218.323,663.718L218.297,663.746L218.267,663.779L218.211,663.841C218.186,663.868 218.161,663.896 218.136,663.923C218.049,664.02 217.963,664.116 217.877,664.213L217.822,664.276C217.741,664.368 217.66,664.461 217.58,664.555Z" style="fill:none;stroke:rgb(57,73,156);stroke-width:6.67px;"/>
            <path d="M220.759,661.328C220.853,661.246 220.946,661.164 221.041,661.083C221.086,661.043 221.132,661.004 221.178,660.965C221.306,660.855 221.435,660.747 221.565,660.64C221.631,660.585 221.697,660.531 221.763,660.477L221.775,660.467L221.83,660.423C221.87,660.39 221.911,660.357 221.952,660.325C222.034,660.259 222.116,660.194 222.198,660.129C222.253,660.086 222.307,660.044 222.362,660.001L222.393,659.977C222.426,659.951 222.46,659.925 222.493,659.9L222.56,659.849L222.588,659.827C222.887,659.599 223.191,659.376 223.499,659.158L223.567,659.11L223.594,659.091C223.672,659.036 223.751,658.981 223.83,658.927L223.84,658.92L223.901,658.878C223.95,658.845 223.998,658.812 224.047,658.779L224.116,658.732L224.159,658.703C224.216,658.665 224.273,658.627 224.33,658.589L224.393,658.547L224.449,658.51C224.84,658.254 225.236,658.006 225.637,657.767C225.671,657.747 225.704,657.727 225.738,657.708L225.81,657.665C225.98,657.566 226.15,657.467 226.322,657.371L226.39,657.333L226.415,657.319C226.459,657.294 226.503,657.27 226.547,657.246C226.641,657.194 226.735,657.142 226.829,657.091L226.903,657.052C226.784,657.116 226.665,657.18 226.547,657.246C226.503,657.27 226.459,657.294 226.415,657.319L226.39,657.333L226.322,657.371C226.15,657.467 225.98,657.566 225.81,657.665L225.738,657.708C225.704,657.727 225.671,657.747 225.637,657.767C225.236,658.006 224.84,658.254 224.449,658.51L224.393,658.547L224.33,658.589C224.273,658.627 224.216,658.665 224.159,658.703L224.116,658.732L224.047,658.779C223.998,658.812 223.95,658.845 223.901,658.878L223.84,658.92L223.83,658.927C223.751,658.981 223.672,659.036 223.594,659.091L223.567,659.11L223.499,659.158C223.191,659.376 222.887,659.599 222.588,659.827L222.56,659.849L222.493,659.9L222.427,659.95L222.393,659.977L222.362,660.001C222.307,660.044 222.253,660.086 222.198,660.129C222.116,660.194 222.034,660.259 221.952,660.325C221.911,660.357 221.87,660.39 221.83,660.423L221.775,660.467L221.763,660.477C221.697,660.531 221.631,660.585 221.565,660.64C221.435,660.747 221.306,660.855 221.178,660.965C221.132,661.004 221.086,661.043 221.041,661.083C220.926,661.182 220.811,661.282 220.697,661.384L220.759,661.328Z" style="fill:none;stroke:rgb(57,73,156);stroke-width:6.67px;"/>
            <path d="M263.284,661.31C263.146,661.188 263.007,661.066 262.866,660.947L262.831,660.916L262.803,660.893C262.759,660.855 262.714,660.817 262.669,660.779C262.592,660.714 262.514,660.649 262.436,660.585C262.411,660.564 262.385,660.542 262.359,660.521C262.049,660.267 261.735,660.019 261.417,659.776C261.352,659.727 261.287,659.678 261.222,659.629L261.291,659.681C261.333,659.713 261.375,659.744 261.417,659.776C261.735,660.019 262.049,660.267 262.359,660.521L262.37,660.53L262.436,660.585C262.514,660.649 262.592,660.714 262.669,660.779C262.714,660.817 262.759,660.855 262.803,660.893L262.831,660.916L262.866,660.947C262.985,661.048 263.103,661.15 263.22,661.253L263.284,661.31Z" style="fill:none;stroke:rgb(57,73,156);stroke-width:6.67px;"/>
            <path d="M261.048,659.499C260.803,659.319 260.555,659.141 260.305,658.967C260.26,658.935 260.214,658.904 260.169,658.872C260.077,658.809 259.985,658.747 259.892,658.684L259.821,658.636C259.726,658.573 259.63,658.509 259.534,658.447L259.606,658.494C259.678,658.541 259.75,658.588 259.821,658.636L259.892,658.684C259.985,658.746 260.077,658.809 260.169,658.872C260.214,658.904 260.26,658.935 260.305,658.967C260.555,659.141 260.803,659.319 261.048,659.499L261.085,659.527L261.114,659.549L261.085,659.527L261.048,659.499Z" style="fill:none;stroke:rgb(57,73,156);stroke-width:6.67px;"/>
            <path d="M259.173,658.214C259.052,658.137 258.931,658.061 258.809,657.985L258.882,658.031C259.004,658.106 259.125,658.183 259.246,658.26L259.173,658.214Z" style="fill:none;stroke:rgb(57,73,156);stroke-width:6.67px;"/>
            <path d="M258.265,657.657C258.225,657.633 258.185,657.61 258.145,657.587L258.219,657.63L258.265,657.657Z" style="fill:none;stroke:rgb(57,73,156);stroke-width:6.67px;"/>
            <path d="M257.847,657.415C257.772,657.372 257.697,657.33 257.622,657.288L257.697,657.33C257.722,657.344 257.747,657.358 257.772,657.372L257.847,657.415Z" style="fill:none;stroke:rgb(57,73,156);stroke-width:6.67px;"/>
            <path d="M257.471,657.204C257.421,657.176 257.371,657.148 257.32,657.121L257.396,657.162C257.446,657.19 257.496,657.218 257.547,657.246L257.471,657.204Z" style="fill:none;stroke:rgb(57,73,156);stroke-width:6.67px;"/>
            <path d="M227.051,656.973C227.188,656.9 227.327,656.828 227.465,656.758C227.575,656.702 227.685,656.646 227.796,656.591L227.871,656.554C227.735,656.621 227.6,656.689 227.465,656.758C227.302,656.841 227.139,656.926 226.977,657.012L227.051,656.973Z" style="fill:none;stroke:rgb(57,73,156);stroke-width:6.67px;"/>
            <path d="M256.864,656.877C256.786,656.836 256.708,656.795 256.629,656.755L256.558,656.718L256.488,656.683C256.433,656.655 256.379,656.628 256.325,656.601C256.197,656.536 256.068,656.473 255.939,656.411L256.017,656.448C256.12,656.499 256.223,656.549 256.325,656.601C256.379,656.628 256.433,656.655 256.488,656.683L256.558,656.718L256.629,656.755C256.733,656.808 256.837,656.862 256.94,656.917L256.864,656.877Z" style="fill:none;stroke:rgb(57,73,156);stroke-width:6.67px;"/>
            <path d="M227.946,656.517C228.007,656.487 228.069,656.457 228.13,656.428C228.169,656.409 228.209,656.39 228.248,656.371L228.324,656.335L228.375,656.311C228.561,656.224 228.747,656.138 228.934,656.054L229.011,656.02C229.072,655.993 229.133,655.966 229.195,655.939L229.242,655.919L229.275,655.904L229.319,655.885L229.396,655.852C229.606,655.762 229.818,655.673 230.031,655.588C230.078,655.568 230.126,655.549 230.174,655.53L230.252,655.499C230.278,655.489 230.305,655.479 230.331,655.468L230.409,655.438C230.357,655.458 230.305,655.478 230.252,655.499L230.174,655.53C230.126,655.549 230.078,655.568 230.031,655.588C229.792,655.684 229.555,655.783 229.319,655.885L229.275,655.904L229.242,655.919L229.195,655.939C229.108,655.977 229.021,656.015 228.934,656.054C228.747,656.138 228.561,656.224 228.375,656.311L228.324,656.335L228.248,656.371C228.209,656.39 228.169,656.409 228.13,656.428C228.094,656.445 228.058,656.463 228.022,656.48L227.946,656.517Z" style="fill:none;stroke:rgb(57,73,156);stroke-width:6.67px;"/>
            <path d="M255.706,656.299C255.563,656.231 255.421,656.165 255.277,656.1C255.211,656.069 255.144,656.039 255.077,656.009L255.156,656.045C255.197,656.063 255.237,656.081 255.277,656.1C255.447,656.177 255.616,656.256 255.784,656.336L255.706,656.299Z" style="fill:none;stroke:rgb(57,73,156);stroke-width:6.67px;"/>
            <path d="M254.919,655.939C254.893,655.927 254.866,655.916 254.84,655.904L254.761,655.869L254.694,655.841C254.663,655.827 254.633,655.814 254.602,655.801L254.522,655.767C254.469,655.744 254.415,655.722 254.362,655.699L254.442,655.733C254.495,655.755 254.548,655.778 254.602,655.801C254.633,655.814 254.663,655.827 254.694,655.841L254.761,655.869L254.84,655.904C254.893,655.927 254.946,655.95 254.998,655.974L254.919,655.939Z" style="fill:none;stroke:rgb(57,73,156);stroke-width:6.67px;"/>
            <path d="M254.202,655.633C253.887,655.503 253.569,655.378 253.249,655.258L253.233,655.252L253.2,655.239C253.086,655.197 252.971,655.155 252.857,655.114C252.804,655.095 252.752,655.076 252.699,655.057C252.55,655.004 252.399,654.952 252.248,654.902C252.216,654.891 252.184,654.88 252.152,654.869L252.083,654.846L252.034,654.83L252,654.819L251.987,654.815C251.66,654.707 251.33,654.605 250.999,654.509L251.083,654.533C251.386,654.623 251.687,654.717 251.987,654.815L252.083,654.846L252.166,654.874L252.248,654.902C252.399,654.952 252.55,655.004 252.699,655.057C252.752,655.076 252.804,655.095 252.857,655.114C252.971,655.155 253.086,655.197 253.2,655.239L253.249,655.258C253.596,655.388 253.941,655.524 254.282,655.666L254.202,655.633Z" style="fill:none;stroke:rgb(57,73,156);stroke-width:6.67px;"/>
            <path d="M230.567,655.377C230.829,655.276 231.094,655.179 231.359,655.085L231.439,655.057C231.12,655.169 230.803,655.286 230.488,655.407L230.567,655.377Z" style="fill:none;stroke:rgb(57,73,156);stroke-width:6.67px;"/>
            <path d="M231.759,654.947C231.805,654.932 231.851,654.917 231.897,654.902C232.172,654.81 232.45,654.722 232.729,654.637C232.761,654.628 232.793,654.618 232.825,654.609C232.874,654.594 232.924,654.579 232.973,654.565L233.055,654.541C233.149,654.514 233.243,654.487 233.338,654.46C233.38,654.448 233.422,654.437 233.464,654.425L233.546,654.402L233.464,654.425L233.382,654.448L233.338,654.46C233.243,654.487 233.149,654.514 233.055,654.541L232.973,654.565C232.924,654.579 232.874,654.594 232.825,654.609L232.81,654.613L232.729,654.637C232.45,654.722 232.172,654.81 231.897,654.902C231.824,654.926 231.752,654.95 231.679,654.975L231.759,654.947Z" style="fill:none;stroke:rgb(57,73,156);stroke-width:6.67px;"/>
            <path d="M248.61,653.912C248.639,653.918 248.668,653.924 248.697,653.93L248.783,653.949C248.95,653.985 249.117,654.022 249.283,654.06C249.317,654.068 249.351,654.076 249.386,654.084L249.471,654.104C249.687,654.156 249.901,654.209 250.115,654.265C250.191,654.285 250.267,654.305 250.343,654.325L250.408,654.343L250.464,654.358C250.543,654.379 250.622,654.401 250.702,654.424L250.746,654.436L250.83,654.46L250.914,654.484C250.872,654.472 250.829,654.46 250.786,654.448L250.746,654.436L250.702,654.424C250.622,654.401 250.543,654.379 250.464,654.358L250.408,654.343L250.343,654.325C250.267,654.305 250.191,654.285 250.115,654.265C249.901,654.209 249.687,654.156 249.471,654.104L249.386,654.084C249.351,654.076 249.317,654.068 249.283,654.06C249.117,654.022 248.95,653.985 248.783,653.949L248.697,653.93C248.639,653.918 248.582,653.906 248.524,653.894L248.61,653.912Z" style="fill:none;stroke:rgb(57,73,156);stroke-width:6.67px;"/>
            <path d="M209.632,727.198L209.632,716.971C209.537,716.38 210.077,728.989 209.808,730.846L209.808,730.862L209.807,730.862C209.774,731.118 209.715,731.159 209.632,730.862L209.807,730.862L209.808,730.846L209.632,727.198Z" style="fill:none;stroke:rgb(57,73,156);stroke-width:6.67px;"/>
            <path d="M286.589,690.038C285.801,699.073 282.331,707.328 276.97,713.999C276.159,715.008 275.305,715.98 274.411,716.914L271.427,719.791C263.576,726.692 253.282,730.862 242.021,730.862C229.284,730.862 217.783,725.527 209.632,716.971L209.632,682.88L209.701,737.474L197.375,737.474C197.375,737.474 197.2,722.812 197.285,715.71L197.285,682.88L197.401,682.88C198.409,668.846 205.902,656.598 216.893,649.131C222.03,645.642 227.93,643.197 234.29,642.103L234.29,668.199C227.377,671.22 222.565,678.113 222.565,686.125C222.565,696.91 231.283,705.667 242.021,705.667C252.76,705.667 261.478,696.91 261.478,686.125C261.478,677.597 256.027,670.338 248.437,667.696L248.437,641.902C270.065,644.961 286.711,663.562 286.758,686.125L286.589,690.038Z" style="fill:none;stroke:rgb(57,73,156);stroke-width:6.67px;"/>
            <path d="M274.16,690.24C273.582,694.937 272.027,699.328 269.668,703.265C269.668,703.265 269.617,703.349 269.617,703.349L269.668,703.265C271.433,700.32 272.747,697.122 273.542,693.722L274.16,690.24Z" style="fill:none;stroke:rgb(57,73,156);stroke-width:6.67px;"/>
            <path d="M274.24,689.522C274.255,689.372 274.269,689.222 274.283,689.072L274.292,688.968C274.276,689.153 274.259,689.338 274.24,689.522L274.233,689.591L274.228,689.643L274.233,689.591L274.24,689.522Z" style="fill:none;stroke:rgb(57,73,156);stroke-width:6.67px;"/>
            <path d="M286.758,734.211L274.292,734.253L274.411,716.914C275.305,715.98 276.159,715.008 276.97,713.999C283.1,706.371 286.758,696.672 286.758,686.125L286.758,734.211Z" style="fill:none;stroke:rgb(57,73,156);stroke-width:6.67px;"/>
            <path d="M273.542,693.722C272.752,697.112 271.445,700.3 269.668,703.265C269.668,703.265 269.617,703.349 269.617,703.349L269.668,703.265C272.027,699.328 273.582,694.937 274.16,690.24L273.542,693.722Z" style="fill:none;stroke:rgb(57,73,156);stroke-width:6.67px;"/>
            <path d="M274.24,689.522C274.259,689.338 274.276,689.153 274.292,688.968L274.283,689.072C274.269,689.222 274.255,689.372 274.24,689.522L274.233,689.591L274.228,689.643L274.233,689.591L274.24,689.522Z" style="fill:none;stroke:rgb(57,73,156);stroke-width:6.67px;"/>
            <g transform="matrix(1,0,0,1,0,2)">
                <path d="M234.399,672.372L234.29,633.624L248.437,633.624L248.473,672.431L234.399,672.372Z" style="fill:none;stroke:rgb(57,73,156);stroke-width:6.67px;"/>
            </g>
            <g transform="matrix(1,0,0,1,77.483,-1.60827)">
                <rect x="191.134" y="730.862" width="23.834" height="8.664" style="fill:rgb(57,73,156);stroke:rgb(57,73,156);stroke-width:1.78px;"/>
            </g>
            <g transform="matrix(1,0,0,1,0.158067,-4.75757)">
                <rect x="190.813" y="742.232" width="25.304" height="9.515" style="fill:none;stroke:rgb(57,73,156);stroke-width:6.67px;"/>
            </g>
            <g transform="matrix(-0.566836,6.94174e-17,-1.05991e-16,-0.86548,315.379,1420.52)">
                <path d="M211.773,778.214L182.541,778.214L189.849,751.747L204.465,751.747L211.773,778.214Z" style="fill:none;stroke:rgb(57,73,156);stroke-width:9.11px;"/>
            </g>
        </g>
    </g>
</svg>
